<svg xmlns="http://www.w3.org/2000/svg" xmlns:xlink="http://www.w3.org/1999/xlink" width="500" zoomAndPan="magnify" viewBox="0 0 375 374.999991" height="500" preserveAspectRatio="xMidYMid meet" version="1.0"><defs><filter x="0%" y="0%" width="100%" height="100%" id="500c158e4d"><feColorMatrix values="0 0 0 0 1 0 0 0 0 1 0 0 0 0 1 0 0 0 1 0" color-interpolation-filters="sRGB"/></filter><g/><clipPath id="f9dc950747"><path d="M 255 120.269531 L 270 120.269531 L 270 211 L 255 211 Z M 255 120.269531 " clip-rule="nonzero"/></clipPath><mask id="2a1ded6b5d"><g filter="url(#500c158e4d)"><rect x="-37.5" width="450" fill="#000000" y="-37.499999" height="449.999989" fill-opacity="0.3"/></g></mask><clipPath id="7fb5edb89e"><path d="M 0.0390625 0.480469 L 0.519531 0.480469 L 0.519531 1.441406 L 0.0390625 1.441406 Z M 0.0390625 0.480469 " clip-rule="nonzero"/></clipPath><clipPath id="14c9886c49"><rect x="0" width="1" y="0" height="2"/></clipPath><mask id="0814d6d31b"><g filter="url(#500c158e4d)"><rect x="-37.5" width="450" fill="#000000" y="-37.499999" height="449.999989" fill-opacity="0.3"/></g></mask><clipPath id="4e91281dd8"><path d="M 0.199219 0.078125 L 7.398438 0.078125 L 7.398438 19.761719 L 0.199219 19.761719 Z M 0.199219 0.078125 " clip-rule="nonzero"/></clipPath><clipPath id="595c609960"><rect x="0" width="8" y="0" height="20"/></clipPath></defs><g fill="#ffffff" fill-opacity="1"><g transform="translate(41.782795, 201.822129)"><g><path d="M 40.03125 -20.09375 C 40.132812 -19.675781 40.210938 -19.296875 40.265625 -18.953125 C 40.316406 -18.617188 40.367188 -18.347656 40.421875 -18.140625 C 40.421875 -17.984375 40.429688 -17.8125 40.453125 -17.625 C 40.484375 -17.445312 40.5 -17.28125 40.5 -17.125 L 40.5 -10.671875 C 40.5 -10.566406 40.457031 -10.238281 40.375 -9.6875 C 40.300781 -9.144531 40.109375 -8.484375 39.796875 -7.703125 C 39.484375 -6.929688 38.945312 -6.085938 38.1875 -5.171875 C 37.4375 -4.265625 36.382812 -3.421875 35.03125 -2.640625 C 33.6875 -1.867188 31.960938 -1.222656 29.859375 -0.703125 C 27.765625 -0.179688 25.179688 0.078125 22.109375 0.078125 C 21.859375 0.078125 21.507812 0.078125 21.0625 0.078125 C 20.625 0.078125 19.804688 0.078125 18.609375 0.078125 C 17.421875 0.078125 15.65625 0.0625 13.3125 0.03125 C 10.976562 0.0078125 7.757812 0 3.65625 0 L 3.65625 -45.875 C 3.601562 -46.4375 3.429688 -46.859375 3.140625 -47.140625 C 2.859375 -47.429688 2.664062 -47.601562 2.5625 -47.65625 C 2.3125 -47.8125 2.1875 -48.019531 2.1875 -48.28125 C 2.1875 -48.800781 2.414062 -49.0625 2.875 -49.0625 L 22.578125 -49.0625 C 26.679688 -49.007812 29.898438 -48.503906 32.234375 -47.546875 C 34.578125 -46.585938 36.359375 -45.507812 37.578125 -44.3125 C 38.796875 -43.113281 39.5625 -41.941406 39.875 -40.796875 C 40.1875 -39.660156 40.367188 -38.882812 40.421875 -38.46875 C 40.421875 -38.3125 40.429688 -38.140625 40.453125 -37.953125 C 40.484375 -37.773438 40.5 -37.609375 40.5 -37.453125 L 40.5 -35.28125 C 40.445312 -34.1875 40.1875 -33.117188 39.71875 -32.078125 C 39.300781 -31.203125 38.640625 -30.253906 37.734375 -29.234375 C 36.828125 -28.222656 35.515625 -27.332031 33.796875 -26.5625 C 35.816406 -25.625 37.28125 -24.554688 38.1875 -23.359375 C 39.101562 -22.171875 39.71875 -21.082031 40.03125 -20.09375 Z M 26.640625 -41.578125 C 26.585938 -42.148438 26.40625 -42.671875 26.09375 -43.140625 C 25.832031 -43.554688 25.375 -43.921875 24.71875 -44.234375 C 24.070312 -44.546875 23.175781 -44.703125 22.03125 -44.703125 L 17.4375 -44.703125 L 17.515625 -28.8125 L 22.03125 -28.8125 C 23.175781 -28.8125 24.070312 -28.96875 24.71875 -29.28125 C 25.375 -29.59375 25.832031 -29.957031 26.09375 -30.375 C 26.40625 -30.84375 26.585938 -31.382812 26.640625 -32 Z M 26.640625 -7.703125 L 26.640625 -21.265625 C 26.585938 -21.828125 26.40625 -22.34375 26.09375 -22.8125 C 25.832031 -23.226562 25.375 -23.59375 24.71875 -23.90625 C 24.070312 -24.21875 23.175781 -24.375 22.03125 -24.375 L 17.4375 -24.375 L 17.4375 -11.53125 L 17.515625 -4.28125 L 22.03125 -4.28125 C 23.175781 -4.28125 24.070312 -4.4375 24.71875 -4.75 C 25.375 -5.0625 25.832031 -5.425781 26.09375 -5.84375 C 26.40625 -6.3125 26.585938 -6.828125 26.640625 -7.390625 Z M 26.640625 -7.703125 "/></g></g></g><g fill="#ffffff" fill-opacity="1"><g transform="translate(84.610585, 201.822129)"><g><path d="M 38.703125 -10.75 C 38.703125 -10.539062 38.582031 -9.863281 38.34375 -8.71875 C 38.113281 -7.582031 37.414062 -6.363281 36.25 -5.0625 C 35.082031 -3.757812 33.25 -2.585938 30.75 -1.546875 C 28.257812 -0.515625 24.785156 0 20.328125 0 C 16.066406 0 12.71875 -0.460938 10.28125 -1.390625 C 7.84375 -2.328125 6.007812 -3.40625 4.78125 -4.625 C 3.5625 -5.851562 2.785156 -7.050781 2.453125 -8.21875 C 2.117188 -9.382812 1.953125 -10.175781 1.953125 -10.59375 C 1.953125 -10.695312 1.9375 -10.890625 1.90625 -11.171875 C 1.882812 -11.460938 1.875 -12.226562 1.875 -13.46875 C 1.875 -14.71875 1.875 -16.625 1.875 -19.1875 C 1.875 -21.757812 1.875 -25.359375 1.875 -29.984375 C 1.925781 -31.953125 2.625 -33.742188 3.96875 -35.359375 C 4.539062 -36.035156 5.265625 -36.695312 6.140625 -37.34375 C 7.023438 -37.988281 8.117188 -38.570312 9.421875 -39.09375 C 10.722656 -39.613281 12.253906 -40.03125 14.015625 -40.34375 C 15.785156 -40.65625 17.835938 -40.8125 20.171875 -40.8125 C 24.429688 -40.8125 27.78125 -40.34375 30.21875 -39.40625 C 32.65625 -38.46875 34.484375 -37.390625 35.703125 -36.171875 C 36.921875 -34.953125 37.695312 -33.769531 38.03125 -32.625 C 38.375 -31.488281 38.570312 -30.710938 38.625 -30.296875 Z M 20.25 -4.359375 C 21.382812 -4.359375 22.273438 -4.515625 22.921875 -4.828125 C 23.578125 -5.140625 24.035156 -5.503906 24.296875 -5.921875 C 24.609375 -6.390625 24.789062 -6.929688 24.84375 -7.546875 L 24.84375 -33.328125 C 24.789062 -33.898438 24.609375 -34.421875 24.296875 -34.890625 C 24.035156 -35.304688 23.578125 -35.671875 22.921875 -35.984375 C 22.273438 -36.296875 21.382812 -36.453125 20.25 -36.453125 C 19.050781 -36.453125 18.140625 -36.296875 17.515625 -35.984375 C 16.898438 -35.671875 16.460938 -35.304688 16.203125 -34.890625 C 15.890625 -34.421875 15.707031 -33.898438 15.65625 -33.328125 L 15.734375 -7.46875 C 15.785156 -6.90625 15.96875 -6.390625 16.28125 -5.921875 C 16.539062 -5.503906 16.976562 -5.140625 17.59375 -4.828125 C 18.21875 -4.515625 19.101562 -4.359375 20.25 -4.359375 Z M 20.25 -4.359375 "/></g></g></g><g fill="#ffffff" fill-opacity="1"><g transform="translate(125.413799, 201.822129)"><g><path d="M 40.65625 -30.21875 C 40.65625 -29.332031 40.484375 -28.460938 40.140625 -27.609375 C 39.804688 -26.753906 39.335938 -26 38.734375 -25.34375 C 38.140625 -24.695312 37.414062 -24.175781 36.5625 -23.78125 C 35.707031 -23.394531 34.785156 -23.203125 33.796875 -23.203125 C 32.859375 -23.203125 31.960938 -23.382812 31.109375 -23.75 C 30.253906 -24.113281 29.515625 -24.609375 28.890625 -25.234375 C 28.265625 -25.859375 27.769531 -26.582031 27.40625 -27.40625 C 27.039062 -28.238281 26.859375 -29.125 26.859375 -30.0625 L 26.859375 -30.21875 C 26.859375 -30.476562 26.785156 -30.710938 26.640625 -30.921875 C 26.535156 -31.078125 26.378906 -31.191406 26.171875 -31.265625 C 25.960938 -31.347656 25.675781 -31.285156 25.3125 -31.078125 C 24.945312 -30.867188 24.359375 -30.410156 23.546875 -29.703125 C 22.742188 -29.003906 21.914062 -28.265625 21.0625 -27.484375 C 20.207031 -26.710938 19.425781 -25.988281 18.71875 -25.3125 C 18.019531 -24.632812 17.59375 -24.21875 17.4375 -24.0625 L 17.4375 -2.421875 C 17.488281 -1.953125 17.59375 -1.5625 17.75 -1.25 C 17.851562 -0.9375 18.007812 -0.660156 18.21875 -0.421875 C 18.425781 -0.191406 18.710938 -0.078125 19.078125 -0.078125 L 3.65625 -0.078125 L 3.65625 -35.28125 C 3.65625 -35.957031 3.5 -36.4375 3.1875 -36.71875 C 2.875 -37 2.664062 -37.164062 2.5625 -37.21875 C 2.3125 -37.320312 2.1875 -37.53125 2.1875 -37.84375 C 2.1875 -38.363281 2.441406 -38.625 2.953125 -38.625 L 10.59375 -38.625 C 11.53125 -38.625 12.410156 -38.441406 13.234375 -38.078125 C 14.066406 -37.710938 14.796875 -37.21875 15.421875 -36.59375 C 16.046875 -35.976562 16.535156 -35.238281 16.890625 -34.375 C 17.253906 -33.519531 17.4375 -32.625 17.4375 -31.6875 L 17.4375 -27.25 C 19.15625 -29.539062 20.632812 -31.503906 21.875 -33.140625 C 23.125 -34.773438 24.269531 -36.003906 25.3125 -36.828125 C 26.039062 -37.398438 26.765625 -37.800781 27.484375 -38.03125 C 28.210938 -38.269531 28.863281 -38.441406 29.4375 -38.546875 C 30.113281 -38.648438 30.789062 -38.675781 31.46875 -38.625 C 32.863281 -38.625 34.050781 -38.441406 35.03125 -38.078125 C 36.019531 -37.710938 36.851562 -37.242188 37.53125 -36.671875 C 38.207031 -36.109375 38.738281 -35.488281 39.125 -34.8125 C 39.519531 -34.132812 39.847656 -33.484375 40.109375 -32.859375 C 40.265625 -32.441406 40.394531 -32.023438 40.5 -31.609375 C 40.601562 -31.203125 40.65625 -30.738281 40.65625 -30.21875 Z M 40.65625 -30.21875 "/></g></g></g><g fill="#ffffff" fill-opacity="1"><g transform="translate(168.241589, 201.822129)"><g><path d="M 32.9375 -18.453125 C 34.863281 -18.453125 36.5 -17.773438 37.84375 -16.421875 C 39.195312 -15.078125 39.875 -13.445312 39.875 -11.53125 C 39.875 -11.320312 39.859375 -11.140625 39.828125 -10.984375 C 39.804688 -10.828125 39.796875 -10.671875 39.796875 -10.515625 C 39.742188 -10.097656 39.546875 -9.304688 39.203125 -8.140625 C 38.867188 -6.972656 38.09375 -5.773438 36.875 -4.546875 C 35.65625 -3.328125 33.820312 -2.25 31.375 -1.3125 C 28.9375 -0.382812 25.59375 0.078125 21.34375 0.078125 C 17.914062 0.078125 15.082031 -0.242188 12.84375 -0.890625 C 10.613281 -1.546875 8.820312 -2.335938 7.46875 -3.265625 C 6.125 -4.203125 5.140625 -5.175781 4.515625 -6.1875 C 3.890625 -7.195312 3.472656 -8.09375 3.265625 -8.875 L 3.03125 -10.046875 L 3.03125 -29.90625 C 3.082031 -31.875 3.785156 -33.664062 5.140625 -35.28125 C 5.710938 -35.957031 6.4375 -36.617188 7.3125 -37.265625 C 8.195312 -37.910156 9.285156 -38.492188 10.578125 -39.015625 C 11.878906 -39.535156 13.410156 -39.953125 15.171875 -40.265625 C 16.941406 -40.578125 19 -40.734375 21.34375 -40.734375 C 25.59375 -40.734375 28.9375 -40.265625 31.375 -39.328125 C 33.820312 -38.390625 35.65625 -37.3125 36.875 -36.09375 C 38.09375 -34.875 38.867188 -33.691406 39.203125 -32.546875 C 39.546875 -31.410156 39.742188 -30.632812 39.796875 -30.21875 C 39.796875 -30.007812 39.804688 -29.828125 39.828125 -29.671875 C 39.859375 -29.515625 39.875 -29.332031 39.875 -29.125 C 39.875 -27.207031 39.195312 -25.582031 37.84375 -24.25 C 36.5 -22.925781 34.863281 -22.265625 32.9375 -22.265625 C 31.019531 -22.265625 29.398438 -22.925781 28.078125 -24.25 C 26.753906 -25.582031 26.09375 -27.207031 26.09375 -29.125 L 26.015625 -33.25 C 25.960938 -33.820312 25.78125 -34.34375 25.46875 -34.8125 C 25.207031 -35.226562 24.75 -35.59375 24.09375 -35.90625 C 23.445312 -36.21875 22.554688 -36.375 21.421875 -36.375 C 20.222656 -36.375 19.3125 -36.21875 18.6875 -35.90625 C 18.0625 -35.59375 17.617188 -35.226562 17.359375 -34.8125 C 17.054688 -34.34375 16.878906 -33.820312 16.828125 -33.25 L 16.828125 -7.46875 C 16.878906 -6.851562 17.054688 -6.3125 17.359375 -5.84375 C 17.617188 -5.425781 18.0625 -5.0625 18.6875 -4.75 C 19.3125 -4.4375 20.222656 -4.28125 21.421875 -4.28125 C 22.554688 -4.28125 23.445312 -4.4375 24.09375 -4.75 C 24.75 -5.0625 25.207031 -5.425781 25.46875 -5.84375 C 25.78125 -6.3125 25.960938 -6.828125 26.015625 -7.390625 L 26.09375 -11.53125 C 26.09375 -13.445312 26.753906 -15.078125 28.078125 -16.421875 C 29.398438 -17.773438 31.019531 -18.453125 32.9375 -18.453125 Z M 32.9375 -18.453125 "/></g></g></g><g fill="#ffffff" fill-opacity="1"><g transform="translate(211.069379, 201.822129)"><g><path d="M 32.859375 -18.296875 C 34.785156 -18.296875 36.421875 -17.632812 37.765625 -16.3125 C 39.117188 -14.988281 39.796875 -13.367188 39.796875 -11.453125 C 39.796875 -10.828125 39.648438 -9.863281 39.359375 -8.5625 C 39.078125 -7.269531 38.335938 -5.984375 37.140625 -4.703125 C 35.953125 -3.429688 34.125 -2.300781 31.65625 -1.3125 C 29.1875 -0.332031 25.75 0.15625 21.34375 0.15625 C 17.863281 0.15625 15.003906 -0.164062 12.765625 -0.8125 C 10.535156 -1.46875 8.742188 -2.257812 7.390625 -3.1875 C 6.046875 -4.125 5.0625 -5.097656 4.4375 -6.109375 C 3.8125 -7.117188 3.394531 -8.015625 3.1875 -8.796875 L 2.953125 -10.046875 C 2.953125 -10.097656 2.953125 -10.421875 2.953125 -11.015625 C 2.953125 -11.617188 2.953125 -12.382812 2.953125 -13.3125 C 2.953125 -14.25 2.953125 -15.300781 2.953125 -16.46875 C 2.953125 -17.632812 2.953125 -18.84375 2.953125 -20.09375 L 2.953125 -29.828125 C 3.054688 -31.796875 3.785156 -33.585938 5.140625 -35.203125 C 5.710938 -35.878906 6.4375 -36.539062 7.3125 -37.1875 C 8.195312 -37.832031 9.273438 -38.414062 10.546875 -38.9375 C 11.816406 -39.457031 13.347656 -39.875 15.140625 -40.1875 C 16.929688 -40.5 19 -40.65625 21.34375 -40.65625 C 25.226562 -40.65625 28.351562 -40.25 30.71875 -39.4375 C 33.082031 -38.632812 34.910156 -37.675781 36.203125 -36.5625 C 37.503906 -35.445312 38.375 -34.332031 38.8125 -33.21875 C 39.257812 -32.101562 39.535156 -31.234375 39.640625 -30.609375 C 39.796875 -29.828125 39.847656 -29.097656 39.796875 -28.421875 C 39.742188 -28.054688 39.664062 -27.691406 39.5625 -27.328125 C 39.457031 -26.960938 39.351562 -26.628906 39.25 -26.328125 L 39.171875 -26.25 C 39.015625 -25.882812 38.804688 -25.519531 38.546875 -25.15625 C 38.285156 -24.738281 37.84375 -24.28125 37.21875 -23.78125 C 36.601562 -23.289062 35.773438 -22.835938 34.734375 -22.421875 C 33.847656 -22.015625 32.691406 -21.550781 31.265625 -21.03125 C 29.835938 -20.507812 28.28125 -19.960938 26.59375 -19.390625 C 24.90625 -18.816406 23.203125 -18.242188 21.484375 -17.671875 C 19.773438 -17.109375 18.195312 -16.59375 16.75 -16.125 L 16.75 -7.3125 C 16.800781 -6.75 17.003906 -6.234375 17.359375 -5.765625 C 17.617188 -5.347656 18.0625 -4.984375 18.6875 -4.671875 C 19.3125 -4.359375 20.195312 -4.203125 21.34375 -4.203125 C 22.476562 -4.203125 23.367188 -4.359375 24.015625 -4.671875 C 24.671875 -4.984375 25.128906 -5.347656 25.390625 -5.765625 C 25.703125 -6.234375 25.882812 -6.75 25.9375 -7.3125 L 26.015625 -11.453125 C 26.015625 -13.367188 26.6875 -14.988281 28.03125 -16.3125 C 29.382812 -17.632812 30.992188 -18.296875 32.859375 -18.296875 Z M 16.75 -29.828125 L 16.75 -18.921875 C 19.03125 -19.910156 20.78125 -20.804688 22 -21.609375 C 23.21875 -22.410156 24.113281 -23.097656 24.6875 -23.671875 C 25.363281 -24.296875 25.78125 -24.867188 25.9375 -25.390625 L 25.9375 -33.171875 C 25.882812 -33.742188 25.703125 -34.265625 25.390625 -34.734375 C 25.128906 -35.148438 24.671875 -35.515625 24.015625 -35.828125 C 23.367188 -36.140625 22.476562 -36.296875 21.34375 -36.296875 C 20.195312 -36.296875 19.3125 -36.140625 18.6875 -35.828125 C 18.0625 -35.515625 17.617188 -35.148438 17.359375 -34.734375 C 17.003906 -34.265625 16.800781 -33.742188 16.75 -33.171875 Z M 16.75 -29.828125 "/></g></g></g><g fill="#ffffff" fill-opacity="1"><g transform="translate(253.897169, 201.822129)"><g/></g></g><g fill="#ffffff" fill-opacity="1"><g transform="translate(286.602042, 201.822129)"><g><path d="M 32.859375 -18.296875 C 34.785156 -18.296875 36.421875 -17.632812 37.765625 -16.3125 C 39.117188 -14.988281 39.796875 -13.367188 39.796875 -11.453125 C 39.796875 -10.828125 39.648438 -9.863281 39.359375 -8.5625 C 39.078125 -7.269531 38.335938 -5.984375 37.140625 -4.703125 C 35.953125 -3.429688 34.125 -2.300781 31.65625 -1.3125 C 29.1875 -0.332031 25.75 0.15625 21.34375 0.15625 C 17.863281 0.15625 15.003906 -0.164062 12.765625 -0.8125 C 10.535156 -1.46875 8.742188 -2.257812 7.390625 -3.1875 C 6.046875 -4.125 5.0625 -5.097656 4.4375 -6.109375 C 3.8125 -7.117188 3.394531 -8.015625 3.1875 -8.796875 L 2.953125 -10.046875 C 2.953125 -10.097656 2.953125 -10.421875 2.953125 -11.015625 C 2.953125 -11.617188 2.953125 -12.382812 2.953125 -13.3125 C 2.953125 -14.25 2.953125 -15.300781 2.953125 -16.46875 C 2.953125 -17.632812 2.953125 -18.84375 2.953125 -20.09375 L 2.953125 -29.828125 C 3.054688 -31.796875 3.785156 -33.585938 5.140625 -35.203125 C 5.710938 -35.878906 6.4375 -36.539062 7.3125 -37.1875 C 8.195312 -37.832031 9.273438 -38.414062 10.546875 -38.9375 C 11.816406 -39.457031 13.347656 -39.875 15.140625 -40.1875 C 16.929688 -40.5 19 -40.65625 21.34375 -40.65625 C 25.226562 -40.65625 28.351562 -40.25 30.71875 -39.4375 C 33.082031 -38.632812 34.910156 -37.675781 36.203125 -36.5625 C 37.503906 -35.445312 38.375 -34.332031 38.8125 -33.21875 C 39.257812 -32.101562 39.535156 -31.234375 39.640625 -30.609375 C 39.796875 -29.828125 39.847656 -29.097656 39.796875 -28.421875 C 39.742188 -28.054688 39.664062 -27.691406 39.5625 -27.328125 C 39.457031 -26.960938 39.351562 -26.628906 39.25 -26.328125 L 39.171875 -26.25 C 39.015625 -25.882812 38.804688 -25.519531 38.546875 -25.15625 C 38.285156 -24.738281 37.84375 -24.28125 37.21875 -23.78125 C 36.601562 -23.289062 35.773438 -22.835938 34.734375 -22.421875 C 33.847656 -22.015625 32.691406 -21.550781 31.265625 -21.03125 C 29.835938 -20.507812 28.28125 -19.960938 26.59375 -19.390625 C 24.90625 -18.816406 23.203125 -18.242188 21.484375 -17.671875 C 19.773438 -17.109375 18.195312 -16.59375 16.75 -16.125 L 16.75 -7.3125 C 16.800781 -6.75 17.003906 -6.234375 17.359375 -5.765625 C 17.617188 -5.347656 18.0625 -4.984375 18.6875 -4.671875 C 19.3125 -4.359375 20.195312 -4.203125 21.34375 -4.203125 C 22.476562 -4.203125 23.367188 -4.359375 24.015625 -4.671875 C 24.671875 -4.984375 25.128906 -5.347656 25.390625 -5.765625 C 25.703125 -6.234375 25.882812 -6.75 25.9375 -7.3125 L 26.015625 -11.453125 C 26.015625 -13.367188 26.6875 -14.988281 28.03125 -16.3125 C 29.382812 -17.632812 30.992188 -18.296875 32.859375 -18.296875 Z M 16.75 -29.828125 L 16.75 -18.921875 C 19.03125 -19.910156 20.78125 -20.804688 22 -21.609375 C 23.21875 -22.410156 24.113281 -23.097656 24.6875 -23.671875 C 25.363281 -24.296875 25.78125 -24.867188 25.9375 -25.390625 L 25.9375 -33.171875 C 25.882812 -33.742188 25.703125 -34.265625 25.390625 -34.734375 C 25.128906 -35.148438 24.671875 -35.515625 24.015625 -35.828125 C 23.367188 -36.140625 22.476562 -36.296875 21.34375 -36.296875 C 20.195312 -36.296875 19.3125 -36.140625 18.6875 -35.828125 C 18.0625 -35.515625 17.617188 -35.148438 17.359375 -34.734375 C 17.003906 -34.265625 16.800781 -33.742188 16.75 -33.171875 Z M 16.75 -29.828125 "/></g></g></g><g fill="#ffde59" fill-opacity="1"><g transform="translate(44.024768, 226.707045)"><g><path d="M 7.1875 0 L 4.5 -4.609375 L 2.71875 -4.609375 L 2.71875 0 L 1.25 0 L 1.25 -11.28125 L 4.890625 -11.28125 C 5.742188 -11.28125 6.460938 -11.132812 7.046875 -10.84375 C 7.640625 -10.550781 8.082031 -10.15625 8.375 -9.65625 C 8.664062 -9.164062 8.8125 -8.601562 8.8125 -7.96875 C 8.8125 -7.1875 8.585938 -6.5 8.140625 -5.90625 C 7.691406 -5.3125 7.019531 -4.921875 6.125 -4.734375 L 8.953125 0 Z M 2.71875 -5.796875 L 4.890625 -5.796875 C 5.691406 -5.796875 6.289062 -5.992188 6.6875 -6.390625 C 7.082031 -6.785156 7.28125 -7.3125 7.28125 -7.96875 C 7.28125 -8.632812 7.082031 -9.148438 6.6875 -9.515625 C 6.300781 -9.878906 5.703125 -10.0625 4.890625 -10.0625 L 2.71875 -10.0625 Z M 2.71875 -5.796875 "/></g></g></g><g fill="#ffde59" fill-opacity="1"><g transform="translate(58.318282, 226.707045)"><g><path d="M 2.71875 -10.078125 L 2.71875 -6.3125 L 6.828125 -6.3125 L 6.828125 -5.09375 L 2.71875 -5.09375 L 2.71875 -1.21875 L 7.3125 -1.21875 L 7.3125 0 L 1.25 0 L 1.25 -11.296875 L 7.3125 -11.296875 L 7.3125 -10.078125 Z M 2.71875 -10.078125 "/></g></g></g><g fill="#ffde59" fill-opacity="1"><g transform="translate(71.074237, 226.707045)"><g><path d="M 4.828125 0.109375 C 4.078125 0.109375 3.40625 -0.0195312 2.8125 -0.28125 C 2.226562 -0.550781 1.769531 -0.921875 1.4375 -1.390625 C 1.101562 -1.859375 0.929688 -2.398438 0.921875 -3.015625 L 2.5 -3.015625 C 2.550781 -2.484375 2.765625 -2.035156 3.140625 -1.671875 C 3.523438 -1.316406 4.085938 -1.140625 4.828125 -1.140625 C 5.523438 -1.140625 6.078125 -1.3125 6.484375 -1.65625 C 6.890625 -2.007812 7.09375 -2.460938 7.09375 -3.015625 C 7.09375 -3.441406 6.972656 -3.789062 6.734375 -4.0625 C 6.492188 -4.332031 6.195312 -4.535156 5.84375 -4.671875 C 5.488281 -4.816406 5.007812 -4.96875 4.40625 -5.125 C 3.65625 -5.320312 3.054688 -5.515625 2.609375 -5.703125 C 2.160156 -5.898438 1.773438 -6.207031 1.453125 -6.625 C 1.140625 -7.039062 0.984375 -7.597656 0.984375 -8.296875 C 0.984375 -8.921875 1.140625 -9.46875 1.453125 -9.9375 C 1.765625 -10.414062 2.203125 -10.78125 2.765625 -11.03125 C 3.335938 -11.289062 3.992188 -11.421875 4.734375 -11.421875 C 5.785156 -11.421875 6.648438 -11.15625 7.328125 -10.625 C 8.003906 -10.101562 8.382812 -9.40625 8.46875 -8.53125 L 6.84375 -8.53125 C 6.789062 -8.957031 6.5625 -9.335938 6.15625 -9.671875 C 5.757812 -10.003906 5.234375 -10.171875 4.578125 -10.171875 C 3.960938 -10.171875 3.460938 -10.007812 3.078125 -9.6875 C 2.691406 -9.363281 2.5 -8.921875 2.5 -8.359375 C 2.5 -7.941406 2.613281 -7.601562 2.84375 -7.34375 C 3.070312 -7.082031 3.351562 -6.882812 3.6875 -6.75 C 4.03125 -6.625 4.507812 -6.472656 5.125 -6.296875 C 5.875 -6.085938 6.472656 -5.882812 6.921875 -5.6875 C 7.378906 -5.488281 7.769531 -5.179688 8.09375 -4.765625 C 8.414062 -4.347656 8.578125 -3.785156 8.578125 -3.078125 C 8.578125 -2.523438 8.429688 -2.003906 8.140625 -1.515625 C 7.847656 -1.035156 7.414062 -0.644531 6.84375 -0.34375 C 6.269531 -0.0390625 5.597656 0.109375 4.828125 0.109375 Z M 4.828125 0.109375 "/></g></g></g><g fill="#ffde59" fill-opacity="1"><g transform="translate(85.027865, 226.707045)"><g><path d="M 8.1875 -11.28125 L 8.1875 -10.078125 L 5.109375 -10.078125 L 5.109375 0 L 3.640625 0 L 3.640625 -10.078125 L 0.546875 -10.078125 L 0.546875 -11.28125 Z M 8.1875 -11.28125 "/></g></g></g><g fill="#ffde59" fill-opacity="1"><g transform="translate(98.236993, 226.707045)"><g><path d="M 7.921875 -2.515625 L 3 -2.515625 L 2.09375 0 L 0.53125 0 L 4.609375 -11.21875 L 6.3125 -11.21875 L 10.375 0 L 8.828125 0 Z M 7.5 -3.703125 L 5.453125 -9.40625 L 3.421875 -3.703125 Z M 7.5 -3.703125 "/></g></g></g><g fill="#ffde59" fill-opacity="1"><g transform="translate(113.598695, 226.707045)"><g><path d="M 2.6875 -11.28125 L 2.6875 -4.140625 C 2.6875 -3.140625 2.929688 -2.394531 3.421875 -1.90625 C 3.910156 -1.425781 4.59375 -1.1875 5.46875 -1.1875 C 6.332031 -1.1875 7.007812 -1.425781 7.5 -1.90625 C 7.988281 -2.394531 8.234375 -3.140625 8.234375 -4.140625 L 8.234375 -11.28125 L 9.71875 -11.28125 L 9.71875 -4.15625 C 9.71875 -3.21875 9.523438 -2.425781 9.140625 -1.78125 C 8.765625 -1.144531 8.253906 -0.671875 7.609375 -0.359375 C 6.972656 -0.046875 6.253906 0.109375 5.453125 0.109375 C 4.648438 0.109375 3.925781 -0.046875 3.28125 -0.359375 C 2.644531 -0.671875 2.140625 -1.144531 1.765625 -1.78125 C 1.398438 -2.425781 1.21875 -3.21875 1.21875 -4.15625 L 1.21875 -11.28125 Z M 2.6875 -11.28125 "/></g></g></g><g fill="#ffde59" fill-opacity="1"><g transform="translate(128.976593, 226.707045)"><g><path d="M 7.1875 0 L 4.5 -4.609375 L 2.71875 -4.609375 L 2.71875 0 L 1.25 0 L 1.25 -11.28125 L 4.890625 -11.28125 C 5.742188 -11.28125 6.460938 -11.132812 7.046875 -10.84375 C 7.640625 -10.550781 8.082031 -10.15625 8.375 -9.65625 C 8.664062 -9.164062 8.8125 -8.601562 8.8125 -7.96875 C 8.8125 -7.1875 8.585938 -6.5 8.140625 -5.90625 C 7.691406 -5.3125 7.019531 -4.921875 6.125 -4.734375 L 8.953125 0 Z M 2.71875 -5.796875 L 4.890625 -5.796875 C 5.691406 -5.796875 6.289062 -5.992188 6.6875 -6.390625 C 7.082031 -6.785156 7.28125 -7.3125 7.28125 -7.96875 C 7.28125 -8.632812 7.082031 -9.148438 6.6875 -9.515625 C 6.300781 -9.878906 5.703125 -10.0625 4.890625 -10.0625 L 2.71875 -10.0625 Z M 2.71875 -5.796875 "/></g></g></g><g fill="#ffde59" fill-opacity="1"><g transform="translate(143.270104, 226.707045)"><g><path d="M 7.921875 -2.515625 L 3 -2.515625 L 2.09375 0 L 0.53125 0 L 4.609375 -11.21875 L 6.3125 -11.21875 L 10.375 0 L 8.828125 0 Z M 7.5 -3.703125 L 5.453125 -9.40625 L 3.421875 -3.703125 Z M 7.5 -3.703125 "/></g></g></g><g fill="#ffde59" fill-opacity="1"><g transform="translate(158.631805, 226.707045)"><g><path d="M 10.109375 0 L 8.640625 0 L 2.71875 -8.984375 L 2.71875 0 L 1.25 0 L 1.25 -11.296875 L 2.71875 -11.296875 L 8.640625 -2.328125 L 8.640625 -11.296875 L 10.109375 -11.296875 Z M 10.109375 0 "/></g></g></g><g fill="#ffde59" fill-opacity="1"><g transform="translate(174.462876, 226.707045)"><g><path d="M 8.1875 -11.28125 L 8.1875 -10.078125 L 5.109375 -10.078125 L 5.109375 0 L 3.640625 0 L 3.640625 -10.078125 L 0.546875 -10.078125 L 0.546875 -11.28125 Z M 8.1875 -11.28125 "/></g></g></g><path fill="#ffde59" d="M 279.453125 209.113281 C 279.453125 186.691406 283.988281 178.839844 281.382812 170.921875 C 280.140625 167.148438 274.828125 167.59375 273.910156 170.921875 C 271.796875 178.589844 275.75 184.21875 275.75 208.808594 C 275.75 211.816406 271.324219 216.011719 271.324219 223.761719 C 271.324219 237.542969 273.332031 256.277344 277.703125 256.277344 C 281.894531 256.277344 280.9375 232.128906 280.9375 218.917969 C 280.9375 213.246094 279.453125 211.769531 279.453125 209.113281 Z M 279.453125 209.113281 " fill-opacity="1" fill-rule="nonzero"/><g clip-path="url(#f9dc950747)"><path fill="#ffde59" d="M 260.792969 158.050781 C 260.792969 162.691406 256.34375 194.964844 258.863281 206.683594 C 259.917969 211.582031 265.421875 210.941406 266.335938 206.683594 C 268.664062 195.871094 264.496094 185.914062 264.496094 157.796875 C 264.496094 153.949219 267.46875 153.847656 269.074219 148.882812 C 270.511719 144.445312 268.484375 120.5625 267.832031 120.5625 C 267.085938 120.5625 267.449219 141.246094 266.039062 141.246094 C 264.613281 141.246094 265.335938 120.84375 264.433594 120.5625 C 263.53125 120.28125 264.195312 141.246094 262.527344 141.246094 C 260.84375 141.246094 261.9375 120.5625 261.035156 120.5625 C 260.136719 120.5625 260.386719 141.246094 259.015625 141.246094 C 257.5 141.246094 258.3125 120.5625 257.636719 120.5625 C 256.488281 120.5625 255.144531 143.023438 255.859375 147.769531 C 256.574219 152.511719 260.792969 153.414062 260.792969 158.054688 Z M 260.792969 158.050781 " fill-opacity="1" fill-rule="nonzero"/></g><g mask="url(#2a1ded6b5d)"><g transform="matrix(1, 0, 0, 1, 257, 138)"><g clip-path="url(#14c9886c49)"><g clip-path="url(#7fb5edb89e)"><path fill="#ffde59" d="M 0.359375 1.035156 C 0.347656 1.179688 0.28125 1.28125 0.207031 1.265625 C 0.132812 1.246094 0.078125 1.113281 0.0859375 0.96875 C 0.0976562 0.824219 0.164062 0.722656 0.238281 0.738281 C 0.3125 0.757812 0.367188 0.890625 0.359375 1.035156 Z M 0.359375 1.035156 " fill-opacity="0.777" fill-rule="nonzero"/></g></g></g></g><g mask="url(#0814d6d31b)"><g transform="matrix(1, 0, 0, 1, 259, 190)"><g clip-path="url(#595c609960)"><g clip-path="url(#4e91281dd8)"><path fill="#ffde59" d="M 0.375 16.53125 C 0.828125 18.5625 2.738281 19.988281 4.710938 19.0625 C 6.898438 18.039062 7.210938 14.648438 7.226562 12.808594 C 7.253906 9.550781 6.910156 7.144531 6.519531 3.949219 C 6.398438 2.960938 6.199219 1.113281 6 0.207031 C 5.992188 2.777344 6.394531 5.269531 5.914062 7.824219 C 5.199219 10.230469 5.992188 14.621094 3.695312 16.230469 C 2.554688 17.027344 0.503906 15.449219 0.375 16.53125 Z M 0.375 16.53125 " fill-opacity="1" fill-rule="nonzero"/></g></g></g></g></svg>