<svg xmlns="http://www.w3.org/2000/svg" xmlns:xlink="http://www.w3.org/1999/xlink" width="500" zoomAndPan="magnify" viewBox="0 0 375 374.999991" height="500" preserveAspectRatio="xMidYMid meet" version="1.0"><path fill="#000000" d="M 375.007812 187.503906 C 375.007812 190.574219 374.933594 193.640625 374.785156 196.707031 C 374.632812 199.769531 374.40625 202.828125 374.105469 205.882812 C 373.804688 208.9375 373.429688 211.980469 372.980469 215.015625 C 372.53125 218.054688 372.003906 221.074219 371.40625 224.085938 C 370.808594 227.09375 370.136719 230.089844 369.390625 233.066406 C 368.644531 236.042969 367.828125 238.996094 366.933594 241.933594 C 366.042969 244.871094 365.082031 247.785156 364.046875 250.671875 C 363.015625 253.5625 361.910156 256.425781 360.738281 259.257812 C 359.5625 262.09375 358.320312 264.898438 357.007812 267.671875 C 355.695312 270.449219 354.316406 273.1875 352.867188 275.894531 C 351.421875 278.601562 349.910156 281.269531 348.332031 283.902344 C 346.753906 286.535156 345.113281 289.125 343.410156 291.675781 C 341.703125 294.226562 339.9375 296.734375 338.109375 299.199219 C 336.28125 301.664062 334.394531 304.085938 332.449219 306.457031 C 330.5 308.828125 328.496094 311.152344 326.4375 313.425781 C 324.375 315.699219 322.261719 317.921875 320.089844 320.089844 C 317.921875 322.261719 315.699219 324.375 313.425781 326.4375 C 311.152344 328.496094 308.828125 330.5 306.457031 332.449219 C 304.085938 334.394531 301.664062 336.28125 299.199219 338.109375 C 296.734375 339.9375 294.226562 341.703125 291.675781 343.410156 C 289.125 345.113281 286.535156 346.753906 283.902344 348.332031 C 281.269531 349.910156 278.601562 351.421875 275.894531 352.867188 C 273.1875 354.316406 270.445312 355.695312 267.671875 357.007812 C 264.898438 358.320312 262.09375 359.5625 259.257812 360.738281 C 256.425781 361.910156 253.5625 363.015625 250.671875 364.046875 C 247.785156 365.082031 244.871094 366.042969 241.933594 366.933594 C 238.996094 367.828125 236.042969 368.644531 233.066406 369.390625 C 230.085938 370.136719 227.09375 370.808594 224.085938 371.40625 C 221.074219 372.003906 218.054688 372.53125 215.015625 372.980469 C 211.980469 373.429688 208.9375 373.804688 205.882812 374.105469 C 202.828125 374.40625 199.769531 374.632812 196.707031 374.785156 C 193.640625 374.933594 190.574219 375.007812 187.503906 375.007812 C 184.4375 375.007812 181.371094 374.933594 178.304688 374.785156 C 175.238281 374.632812 172.179688 374.40625 169.125 374.105469 C 166.070312 373.804688 163.027344 373.429688 159.992188 372.980469 C 156.957031 372.53125 153.933594 372.003906 150.925781 371.40625 C 147.914062 370.808594 144.921875 370.136719 141.945312 369.390625 C 138.96875 368.644531 136.011719 367.828125 133.074219 366.933594 C 130.136719 366.042969 127.226562 365.082031 124.335938 364.046875 C 121.445312 363.015625 118.585938 361.910156 115.75 360.738281 C 112.914062 359.5625 110.109375 358.320312 107.335938 357.007812 C 104.5625 355.695312 101.820312 354.316406 99.117188 352.867188 C 96.410156 351.421875 93.738281 349.910156 91.109375 348.332031 C 88.476562 346.753906 85.882812 345.113281 83.332031 343.410156 C 80.78125 341.703125 78.273438 339.9375 75.808594 338.109375 C 73.34375 336.28125 70.925781 334.394531 68.554688 332.449219 C 66.179688 330.5 63.859375 328.496094 61.585938 326.4375 C 59.308594 324.375 57.089844 322.261719 54.917969 320.089844 C 52.75 317.921875 50.632812 315.699219 48.574219 313.425781 C 46.511719 311.152344 44.507812 308.828125 42.5625 306.457031 C 40.613281 304.085938 38.726562 301.664062 36.898438 299.199219 C 35.070312 296.734375 33.304688 294.226562 31.601562 291.675781 C 29.894531 289.125 28.253906 286.535156 26.675781 283.902344 C 25.097656 281.269531 23.585938 278.601562 22.140625 275.894531 C 20.695312 273.1875 19.316406 270.445312 18.003906 267.671875 C 16.691406 264.898438 15.449219 262.09375 14.273438 259.257812 C 13.097656 256.425781 11.996094 253.5625 10.960938 250.671875 C 9.925781 247.785156 8.964844 244.871094 8.074219 241.933594 C 7.183594 238.996094 6.363281 236.042969 5.621094 233.066406 C 4.875 230.085938 4.203125 227.09375 3.601562 224.085938 C 3.003906 221.074219 2.480469 218.054688 2.03125 215.015625 C 1.578125 211.980469 1.203125 208.9375 0.902344 205.882812 C 0.601562 202.828125 0.375 199.769531 0.226562 196.707031 C 0.0742188 193.640625 0 190.574219 0 187.503906 C 0 184.4375 0.0742188 181.371094 0.226562 178.304688 C 0.375 175.238281 0.601562 172.179688 0.902344 169.125 C 1.203125 166.070312 1.578125 163.027344 2.03125 159.992188 C 2.480469 156.957031 3.003906 153.933594 3.601562 150.925781 C 4.203125 147.914062 4.875 144.921875 5.621094 141.945312 C 6.363281 138.96875 7.183594 136.011719 8.074219 133.074219 C 8.964844 130.136719 9.925781 127.226562 10.960938 124.335938 C 11.996094 121.445312 13.097656 118.585938 14.273438 115.75 C 15.449219 112.914062 16.691406 110.109375 18.003906 107.335938 C 19.316406 104.5625 20.695312 101.820312 22.140625 99.117188 C 23.585938 96.410156 25.097656 93.738281 26.675781 91.109375 C 28.253906 88.476562 29.894531 85.882812 31.601562 83.332031 C 33.304688 80.78125 35.070312 78.273438 36.898438 75.808594 C 38.726562 73.34375 40.613281 70.925781 42.5625 68.554688 C 44.507812 66.179688 46.511719 63.859375 48.574219 61.585938 C 50.632812 59.308594 52.75 57.089844 54.917969 54.917969 C 57.089844 52.75 59.308594 50.632812 61.585938 48.574219 C 63.859375 46.511719 66.179688 44.507812 68.554688 42.5625 C 70.925781 40.613281 73.34375 38.726562 75.808594 36.898438 C 78.273438 35.070312 80.78125 33.304688 83.332031 31.601562 C 85.882812 29.894531 88.476562 28.253906 91.109375 26.675781 C 93.738281 25.097656 96.410156 23.585938 99.117188 22.140625 C 101.820312 20.695312 104.5625 19.316406 107.335938 18.003906 C 110.109375 16.691406 112.914062 15.445312 115.75 14.273438 C 118.585938 13.097656 121.445312 11.996094 124.335938 10.960938 C 127.226562 9.925781 130.136719 8.964844 133.074219 8.074219 C 136.011719 7.183594 138.96875 6.363281 141.945312 5.621094 C 144.921875 4.875 147.914062 4.203125 150.925781 3.601562 C 153.933594 3.003906 156.957031 2.480469 159.992188 2.03125 C 163.027344 1.578125 166.070312 1.203125 169.125 0.902344 C 172.179688 0.601562 175.238281 0.375 178.304688 0.226562 C 181.371094 0.0742188 184.4375 0 187.503906 0 C 190.574219 0 193.640625 0.0742188 196.707031 0.226562 C 199.769531 0.375 202.828125 0.601562 205.882812 0.902344 C 208.9375 1.203125 211.980469 1.578125 215.015625 2.03125 C 218.054688 2.480469 221.074219 3.003906 224.085938 3.601562 C 227.09375 4.203125 230.089844 4.875 233.066406 5.621094 C 236.042969 6.363281 238.996094 7.183594 241.933594 8.074219 C 244.871094 8.964844 247.785156 9.925781 250.671875 10.960938 C 253.5625 11.996094 256.425781 13.097656 259.257812 14.273438 C 262.09375 15.445312 264.898438 16.691406 267.671875 18.003906 C 270.449219 19.316406 273.1875 20.695312 275.894531 22.140625 C 278.601562 23.585938 281.269531 25.097656 283.902344 26.675781 C 286.535156 28.253906 289.125 29.894531 291.675781 31.601562 C 294.226562 33.304688 296.734375 35.070312 299.199219 36.898438 C 301.664062 38.726562 304.085938 40.613281 306.457031 42.5625 C 308.828125 44.507812 311.152344 46.511719 313.425781 48.574219 C 315.699219 50.632812 317.921875 52.75 320.089844 54.917969 C 322.261719 57.089844 324.375 59.308594 326.4375 61.585938 C 328.496094 63.859375 330.5 66.179688 332.449219 68.554688 C 334.394531 70.925781 336.28125 73.34375 338.109375 75.808594 C 339.9375 78.273438 341.703125 80.78125 343.410156 83.332031 C 345.113281 85.882812 346.753906 88.476562 348.332031 91.109375 C 349.910156 93.738281 351.421875 96.410156 352.867188 99.117188 C 354.316406 101.820312 355.695312 104.5625 357.007812 107.335938 C 358.320312 110.109375 359.5625 112.914062 360.738281 115.75 C 361.910156 118.585938 363.015625 121.445312 364.046875 124.335938 C 365.082031 127.226562 366.042969 130.136719 366.933594 133.074219 C 367.828125 136.011719 368.644531 138.96875 369.390625 141.945312 C 370.136719 144.921875 370.808594 147.914062 371.40625 150.925781 C 372.003906 153.933594 372.53125 156.957031 372.980469 159.992188 C 373.429688 163.027344 373.804688 166.070312 374.105469 169.125 C 374.40625 172.179688 374.632812 175.238281 374.785156 178.304688 C 374.933594 181.371094 375.007812 184.4375 375.007812 187.503906 Z M 375.007812 187.503906 " fill-opacity="1" fill-rule="nonzero"/><path fill="#25f4ee" d="M 161.410156 155.898438 L 161.410156 145.664062 C 157.902344 145.1875 154.339844 144.886719 150.699219 144.886719 C 106.863281 144.886719 71.207031 180.542969 71.207031 224.378906 C 71.207031 251.269531 84.648438 275.066406 105.144531 289.460938 C 91.910156 275.253906 83.792969 256.226562 83.792969 235.335938 C 83.792969 192.132812 118.445312 156.898438 161.410156 155.890625 Z M 161.410156 155.898438 " fill-opacity="1" fill-rule="nonzero"/><path fill="#25f4ee" d="M 163.285156 271.652344 C 182.839844 271.652344 198.792969 256.09375 199.515625 236.71875 L 199.582031 63.632812 L 231.207031 63.632812 C 230.546875 60.078125 230.191406 56.417969 230.191406 52.675781 L 186.996094 52.675781 L 186.929688 225.761719 C 186.207031 245.144531 170.253906 260.695312 150.699219 260.695312 C 144.621094 260.695312 138.894531 259.171875 133.859375 256.527344 C 140.464844 265.671875 151.175781 271.664062 163.292969 271.664062 Z M 163.285156 271.652344 " fill-opacity="1" fill-rule="nonzero"/><path fill="#25f4ee" d="M 290.277344 122.375 L 290.277344 112.753906 C 278.21875 112.753906 266.976562 109.167969 257.554688 103.027344 C 265.945312 112.660156 277.34375 119.609375 290.277344 122.375 Z M 290.277344 122.375 " fill-opacity="1" fill-rule="nonzero"/><path fill="#fe2c55" d="M 257.554688 103.015625 C 248.363281 92.464844 242.777344 78.683594 242.777344 63.625 L 231.207031 63.625 C 234.253906 80.074219 244.019531 94.195312 257.554688 103.015625 Z M 257.554688 103.015625 " fill-opacity="1" fill-rule="nonzero"/><path fill="#fe2c55" d="M 150.699219 188.078125 C 130.679688 188.078125 114.390625 204.359375 114.390625 224.386719 C 114.390625 238.328125 122.300781 250.441406 133.851562 256.519531 C 129.542969 250.554688 126.976562 243.246094 126.976562 235.34375 C 126.976562 215.328125 143.265625 199.035156 163.285156 199.035156 C 167.019531 199.035156 170.601562 199.65625 173.996094 200.710938 L 173.996094 156.625 C 170.488281 156.144531 166.921875 155.84375 163.285156 155.84375 C 162.652344 155.84375 162.03125 155.878906 161.402344 155.890625 L 161.402344 189.753906 C 158.015625 188.691406 154.421875 188.078125 150.6875 188.078125 Z M 150.699219 188.078125 " fill-opacity="1" fill-rule="nonzero"/><path fill="#fe2c55" d="M 290.277344 122.375 L 290.277344 155.945312 C 267.882812 155.945312 247.132812 148.777344 230.191406 136.625 L 230.191406 224.394531 C 230.191406 268.230469 194.53125 303.886719 150.699219 303.886719 C 133.757812 303.886719 118.046875 298.546875 105.144531 289.476562 C 119.667969 305.0625 140.351562 314.847656 163.292969 314.847656 C 207.125 314.847656 242.785156 279.1875 242.785156 235.355469 L 242.785156 147.585938 C 259.726562 159.746094 280.476562 166.90625 302.871094 166.90625 L 302.871094 123.710938 C 298.554688 123.710938 294.339844 123.242188 290.285156 122.375 Z M 290.277344 122.375 " fill-opacity="1" fill-rule="nonzero"/><path fill="#ffffff" d="M 230.191406 224.386719 L 230.191406 136.617188 C 247.132812 148.777344 267.882812 155.9375 290.277344 155.9375 L 290.277344 122.367188 C 277.34375 119.601562 265.945312 112.648438 257.554688 103.015625 C 244.015625 94.195312 234.253906 80.074219 231.207031 63.625 L 199.582031 63.625 L 199.515625 236.707031 C 198.792969 256.09375 182.839844 271.644531 163.285156 271.644531 C 151.167969 271.644531 140.453125 265.660156 133.851562 256.507812 C 122.289062 250.421875 114.390625 238.316406 114.390625 224.378906 C 114.390625 204.359375 130.679688 188.070312 150.699219 188.070312 C 154.433594 188.070312 158.015625 188.691406 161.410156 189.742188 L 161.410156 155.878906 C 118.445312 156.886719 83.792969 192.125 83.792969 235.324219 C 83.792969 256.226562 91.910156 275.246094 105.144531 289.449219 C 118.058594 298.515625 133.757812 303.859375 150.699219 303.859375 C 194.53125 303.859375 230.191406 268.199219 230.191406 224.367188 Z M 230.191406 224.386719 " fill-opacity="1" fill-rule="nonzero"/></svg>