<svg xmlns="http://www.w3.org/2000/svg" xmlns:xlink="http://www.w3.org/1999/xlink" width="500" zoomAndPan="magnify" viewBox="0 0 375 374.999991" height="500" preserveAspectRatio="xMidYMid meet" version="1.0"><defs><clipPath id="5236f5145e"><path d="M 2.953125 2.953125 L 374.953125 2.953125 L 374.953125 374.953125 L 2.953125 374.953125 Z M 2.953125 2.953125 " clip-rule="nonzero"/></clipPath></defs><g clip-path="url(#5236f5145e)"><path fill="#000000" d="M 111.917969 4.253906 C 92.128906 5.1875 78.613281 8.347656 66.800781 12.988281 C 54.570312 17.753906 44.207031 24.148438 33.894531 34.5 C 23.585938 44.847656 17.234375 55.21875 12.503906 67.464844 C 7.921875 79.304688 4.820312 92.832031 3.945312 112.632812 C 3.074219 132.433594 2.878906 138.800781 2.976562 189.308594 C 3.074219 239.820312 3.296875 246.152344 4.253906 265.996094 C 5.199219 285.78125 8.347656 299.292969 12.988281 311.109375 C 17.761719 323.339844 24.148438 333.699219 34.503906 344.015625 C 44.855469 354.328125 55.21875 360.664062 67.496094 365.402344 C 79.324219 369.976562 92.855469 373.09375 112.652344 373.960938 C 132.449219 374.828125 138.824219 375.027344 189.316406 374.929688 C 239.8125 374.835938 246.171875 374.609375 266.007812 373.667969 C 285.847656 372.730469 299.289062 369.558594 311.109375 364.9375 C 323.339844 360.15625 333.707031 353.777344 344.015625 343.421875 C 354.320312 333.066406 360.667969 322.6875 365.398438 310.433594 C 369.980469 298.605469 373.09375 285.074219 373.953125 265.292969 C 374.820312 245.4375 375.023438 239.097656 374.925781 188.597656 C 374.832031 138.09375 374.605469 131.761719 373.664062 111.925781 C 372.722656 92.09375 369.570312 78.621094 364.929688 66.796875 C 360.152344 54.566406 353.773438 44.214844 343.421875 33.890625 C 333.074219 23.570312 322.6875 17.226562 310.4375 12.511719 C 298.601562 7.929688 285.078125 4.808594 265.28125 3.953125 C 245.480469 3.097656 239.109375 2.878906 188.597656 2.976562 C 138.082031 3.074219 131.757812 3.289062 111.917969 4.253906 M 114.09375 340.5 C 95.957031 339.710938 86.109375 336.695312 79.546875 334.175781 C 70.859375 330.828125 64.667969 326.777344 58.128906 320.304688 C 51.589844 313.828125 47.570312 307.613281 44.179688 298.941406 C 41.628906 292.378906 38.5625 282.542969 37.714844 264.410156 C 36.789062 244.808594 36.597656 238.925781 36.488281 189.265625 C 36.382812 139.609375 36.570312 133.730469 37.429688 114.121094 C 38.203125 96 41.234375 86.144531 43.753906 79.585938 C 47.101562 70.882812 51.132812 64.707031 57.625 58.167969 C 64.117188 51.632812 70.3125 47.609375 78.988281 44.214844 C 85.542969 41.65625 95.378906 38.613281 113.507812 37.75 C 133.125 36.820312 139 36.632812 188.652344 36.527344 C 238.304688 36.417969 244.195312 36.605469 263.816406 37.46875 C 281.9375 38.257812 291.800781 41.257812 298.351562 43.792969 C 307.042969 47.140625 313.230469 51.160156 319.765625 57.664062 C 326.304688 64.164062 330.332031 70.335938 333.722656 79.035156 C 336.289062 85.570312 339.332031 95.402344 340.1875 113.542969 C 341.121094 133.15625 341.332031 139.039062 341.421875 188.683594 C 341.511719 238.332031 341.335938 244.230469 340.476562 263.828125 C 339.683594 281.964844 336.679688 291.816406 334.152344 298.382812 C 330.804688 307.070312 326.769531 313.265625 320.273438 319.796875 C 313.777344 326.328125 307.589844 330.355469 298.910156 333.746094 C 292.363281 336.300781 282.515625 339.351562 264.402344 340.214844 C 244.785156 341.136719 238.910156 341.332031 189.238281 341.441406 C 139.570312 341.546875 133.710938 341.347656 114.097656 340.5 M 265.722656 89.542969 C 265.722656 90.273438 265.761719 91.003906 265.835938 91.730469 C 265.90625 92.457031 266.015625 93.179688 266.160156 93.898438 C 266.304688 94.613281 266.480469 95.324219 266.695312 96.023438 C 266.910156 96.722656 267.15625 97.40625 267.4375 98.082031 C 267.71875 98.757812 268.03125 99.417969 268.375 100.0625 C 268.722656 100.707031 269.097656 101.332031 269.503906 101.9375 C 269.914062 102.546875 270.347656 103.132812 270.8125 103.695312 C 271.277344 104.261719 271.769531 104.800781 272.289062 105.316406 C 272.804688 105.832031 273.347656 106.320312 273.914062 106.785156 C 274.480469 107.246094 275.066406 107.679688 275.675781 108.085938 C 276.285156 108.492188 276.910156 108.867188 277.554688 109.210938 C 278.199219 109.554688 278.863281 109.863281 279.539062 110.140625 C 280.214844 110.421875 280.902344 110.664062 281.601562 110.875 C 282.300781 111.085938 283.011719 111.265625 283.726562 111.40625 C 284.445312 111.546875 285.167969 111.652344 285.894531 111.722656 C 286.621094 111.792969 287.351562 111.828125 288.082031 111.828125 C 288.8125 111.824219 289.542969 111.789062 290.269531 111.714844 C 290.996094 111.640625 291.71875 111.535156 292.4375 111.390625 C 293.152344 111.246094 293.859375 111.066406 294.558594 110.855469 C 295.257812 110.640625 295.945312 110.394531 296.621094 110.113281 C 297.296875 109.832031 297.957031 109.519531 298.601562 109.171875 C 299.246094 108.824219 299.871094 108.449219 300.476562 108.042969 C 301.085938 107.636719 301.667969 107.199219 302.234375 106.734375 C 302.796875 106.269531 303.339844 105.777344 303.855469 105.261719 C 304.371094 104.742188 304.859375 104.199219 305.324219 103.632812 C 305.785156 103.070312 306.21875 102.480469 306.625 101.871094 C 307.027344 101.265625 307.402344 100.636719 307.746094 99.992188 C 308.089844 99.347656 308.402344 98.683594 308.679688 98.007812 C 308.957031 97.332031 309.203125 96.644531 309.414062 95.945312 C 309.625 95.246094 309.800781 94.539062 309.941406 93.820312 C 310.082031 93.101562 310.1875 92.378906 310.257812 91.652344 C 310.328125 90.925781 310.363281 90.195312 310.363281 89.464844 C 310.363281 88.734375 310.324219 88.003906 310.25 87.277344 C 310.179688 86.550781 310.070312 85.828125 309.925781 85.109375 C 309.78125 84.394531 309.601562 83.6875 309.390625 82.988281 C 309.175781 82.289062 308.929688 81.601562 308.648438 80.925781 C 308.367188 80.25 308.054688 79.589844 307.707031 78.945312 C 307.359375 78.304688 306.984375 77.675781 306.578125 77.070312 C 306.171875 76.464844 305.734375 75.878906 305.269531 75.3125 C 304.804688 74.75 304.3125 74.210938 303.792969 73.691406 C 303.277344 73.175781 302.734375 72.6875 302.167969 72.226562 C 301.601562 71.761719 301.015625 71.328125 300.40625 70.925781 C 299.796875 70.519531 299.171875 70.144531 298.527344 69.800781 C 297.878906 69.457031 297.21875 69.148438 296.542969 68.867188 C 295.867188 68.589844 295.179688 68.34375 294.480469 68.136719 C 293.78125 67.925781 293.070312 67.746094 292.355469 67.605469 C 291.636719 67.464844 290.914062 67.359375 290.1875 67.289062 C 289.457031 67.21875 288.730469 67.183594 288 67.1875 C 287.265625 67.1875 286.539062 67.226562 285.8125 67.296875 C 285.085938 67.371094 284.363281 67.480469 283.644531 67.625 C 282.929688 67.769531 282.222656 67.945312 281.523438 68.160156 C 280.824219 68.375 280.136719 68.621094 279.460938 68.902344 C 278.789062 69.183594 278.128906 69.496094 277.484375 69.84375 C 276.839844 70.1875 276.214844 70.5625 275.609375 70.972656 C 275 71.378906 274.414062 71.816406 273.851562 72.277344 C 273.289062 72.742188 272.746094 73.234375 272.230469 73.753906 C 271.714844 74.269531 271.226562 74.8125 270.765625 75.378906 C 270.300781 75.945312 269.867188 76.53125 269.460938 77.140625 C 269.058594 77.746094 268.683594 78.375 268.339844 79.019531 C 267.996094 79.664062 267.683594 80.324219 267.40625 81 C 267.128906 81.675781 266.882812 82.363281 266.671875 83.0625 C 266.460938 83.765625 266.285156 84.472656 266.144531 85.191406 C 266.003906 85.90625 265.898438 86.628906 265.828125 87.355469 C 265.757812 88.082031 265.722656 88.8125 265.722656 89.542969 M 93.449219 189.140625 C 93.554688 241.890625 136.394531 284.554688 189.132812 284.453125 C 241.871094 284.351562 284.566406 241.515625 284.464844 188.765625 C 284.363281 136.019531 241.511719 93.34375 188.765625 93.445312 C 136.019531 93.550781 93.347656 136.398438 93.449219 189.140625 M 126.953125 189.074219 C 126.949219 187.042969 127.042969 185.015625 127.238281 182.996094 C 127.433594 180.972656 127.726562 178.964844 128.121094 176.972656 C 128.511719 174.980469 129 173.011719 129.585938 171.070312 C 130.171875 169.125 130.851562 167.214844 131.625 165.335938 C 132.398438 163.457031 133.261719 161.625 134.214844 159.832031 C 135.167969 158.039062 136.207031 156.296875 137.332031 154.605469 C 138.457031 152.914062 139.664062 151.285156 140.949219 149.710938 C 142.234375 148.140625 143.59375 146.632812 145.023438 145.195312 C 146.457031 143.757812 147.957031 142.390625 149.523438 141.101562 C 151.09375 139.808594 152.71875 138.597656 154.40625 137.464844 C 156.089844 136.335938 157.828125 135.289062 159.617188 134.328125 C 161.40625 133.367188 163.238281 132.496094 165.113281 131.714844 C 166.988281 130.933594 168.894531 130.246094 170.835938 129.652344 C 172.78125 129.0625 174.746094 128.5625 176.738281 128.164062 C 178.726562 127.765625 180.734375 127.460938 182.753906 127.257812 C 184.773438 127.054688 186.800781 126.953125 188.832031 126.949219 C 190.859375 126.945312 192.886719 127.039062 194.910156 127.234375 C 196.929688 127.429688 198.9375 127.722656 200.929688 128.117188 C 202.921875 128.507812 204.890625 128.996094 206.832031 129.582031 C 208.777344 130.167969 210.6875 130.847656 212.566406 131.621094 C 214.445312 132.394531 216.28125 133.257812 218.070312 134.210938 C 219.863281 135.164062 221.605469 136.203125 223.296875 137.328125 C 224.988281 138.453125 226.617188 139.660156 228.191406 140.945312 C 229.761719 142.230469 231.269531 143.589844 232.707031 145.019531 C 234.144531 146.453125 235.511719 147.953125 236.804688 149.523438 C 238.09375 151.089844 239.304688 152.714844 240.4375 154.402344 C 241.570312 156.085938 242.613281 157.824219 243.574219 159.613281 C 244.535156 161.402344 245.40625 163.234375 246.1875 165.109375 C 246.96875 166.984375 247.65625 168.890625 248.25 170.835938 C 248.84375 172.777344 249.339844 174.742188 249.738281 176.734375 C 250.140625 178.722656 250.441406 180.730469 250.644531 182.75 C 250.847656 184.769531 250.949219 186.796875 250.953125 188.828125 C 250.957031 190.859375 250.863281 192.882812 250.667969 194.90625 C 250.472656 196.925781 250.179688 198.933594 249.785156 200.925781 C 249.394531 202.917969 248.90625 204.886719 248.320312 206.832031 C 247.734375 208.773438 247.054688 210.683594 246.28125 212.5625 C 245.507812 214.441406 244.644531 216.277344 243.691406 218.070312 C 242.738281 219.859375 241.699219 221.601562 240.574219 223.292969 C 239.449219 224.984375 238.242188 226.617188 236.957031 228.1875 C 235.671875 229.761719 234.316406 231.265625 232.882812 232.703125 C 231.449219 234.144531 229.949219 235.507812 228.382812 236.800781 C 226.8125 238.089844 225.1875 239.300781 223.5 240.433594 C 221.816406 241.566406 220.078125 242.609375 218.289062 243.570312 C 216.5 244.53125 214.667969 245.402344 212.792969 246.183594 C 210.917969 246.964844 209.011719 247.652344 207.070312 248.246094 C 205.125 248.839844 203.160156 249.335938 201.167969 249.734375 C 199.179688 250.136719 197.171875 250.4375 195.152344 250.640625 C 193.132812 250.84375 191.105469 250.945312 189.074219 250.949219 C 187.046875 250.953125 185.019531 250.859375 183 250.664062 C 180.976562 250.46875 178.96875 250.175781 176.976562 249.785156 C 174.984375 249.394531 173.015625 248.902344 171.070312 248.320312 C 169.128906 247.734375 167.214844 247.054688 165.339844 246.28125 C 163.460938 245.507812 161.625 244.644531 159.832031 243.691406 C 158.039062 242.734375 156.296875 241.695312 154.609375 240.570312 C 152.917969 239.449219 151.285156 238.242188 149.714844 236.957031 C 148.140625 235.671875 146.636719 234.3125 145.195312 232.878906 C 143.757812 231.445312 142.394531 229.945312 141.101562 228.378906 C 139.808594 226.8125 138.597656 225.1875 137.46875 223.5 C 136.335938 221.8125 135.289062 220.074219 134.328125 218.285156 C 133.367188 216.496094 132.496094 214.664062 131.714844 212.789062 C 130.9375 210.917969 130.25 209.007812 129.65625 207.066406 C 129.0625 205.125 128.566406 203.15625 128.167969 201.167969 C 127.765625 199.175781 127.464844 197.167969 127.261719 195.148438 C 127.058594 193.128906 126.957031 191.101562 126.953125 189.074219 " fill-opacity="1" fill-rule="nonzero"/></g></svg>